<?xml version="1.0" encoding="UTF-8"?><svg id="Layer_1" xmlns="http://www.w3.org/2000/svg" viewBox="0 0 359.42 264.71"><path fill="#ffffff" d="M59.95,120.38v-52.77c0-11.51,13.51-25.67,23.97-29.18,9.32-3.12,39.79-2.75,50.54-1.92,14.6,1.14,33.28,15.6,33.28,31.09v52.77h23.95V31.68c0-11.51,13.51-25.67,23.97-29.18,9.32-3.12,39.79-2.75,50.54-1.92,14.6,1.14,33.28,15.6,33.28,31.09v88.7h50.53c4.56,0,9.31,7.17,9.42,11.6.11,4.72-4.49,12.35-9.42,12.35h-50.53v88.7c0,11.43-13.53,25.68-23.97,29.18-9.32,3.12-39.79,2.75-50.54,1.92-14.57-1.13-33.28-15.64-33.28-31.09v-88.7h-23.95v52.77c0,11.43-13.53,25.68-23.97,29.18-9.32,3.12-39.79,2.75-50.54,1.92-14.57-1.13-33.28-15.64-33.28-31.09v-52.77H9.42C4.5,144.33-.11,136.7,0,131.98c.11-4.43,4.85-11.6,9.42-11.6h50.53ZM84.08,193.93c1.21,4.79,3.46,8.18,8.39,9.57,5.25,1.49,34.23,1.49,40.39.65,6.57-.9,10.54-5.79,10.95-12.26l-.03-119.8c-.97-7.16-5.21-10.99-12.32-11.63-8.26-.74-28.71-.99-36.64.1-6.57.9-10.54,5.79-10.95,12.26l.21,121.12ZM215.82,229.86c1.14,5.31,4.63,9.19,10.11,10.11,5.81.97,35.13.95,40.48-.34s7.76-4.84,8.94-9.77l.18-193.7c-.71-5.84-4.27-10.41-10.29-11.42s-33.09-1.04-39.32,0c-5.49.92-8.97,4.8-10.11,10.11v195.01Z"/></svg>