<?xml version="1.0" encoding="UTF-8"?><svg id="Layer_1" xmlns="http://www.w3.org/2000/svg" viewBox="0 0 359.34 348.06"><path fill="#ffffff" d="M167.5,31.98l.23,234.86c-1.25,17.09-14.99,31.12-31.93,33.19-25.49-1.33-53.31,2.08-78.53.12-17.31-1.35-31.58-15.33-33.27-32.6l-.04-233.56C25.29,16.87,38.89,2.9,55.89.8c25.56,1.49,54.02-2.32,79.24-.08,16.36,1.45,30.31,15.05,32.37,31.26ZM143.57,34.95c-1.43-6.49-5.6-9.73-12.14-10.31-23.04-2.06-49.2,1.55-72.57.1-5.26,1.01-9.03,3.73-10.41,9.06-.72,77.8-1.12,156.07.2,233.82,1.58,5.59,6.06,8.1,11.61,8.6,23.04,2.07,49.2-1.55,72.57-.1,5.26-1.01,9.03-3.73,10.41-9.06l.34-232.1Z"/><path fill="#ffffff" d="M335.17,127.8l.23,139.05c-1.31,17.58-15.77,31.94-33.31,33.31-25.03,1.95-52.56-1.5-77.86-.04-17.33-1.89-31.23-15.77-32.6-33.27-3.44-44.06,2.65-92.52,0-137.04,1.34-17.15,14.96-31.1,31.93-33.19,25.64,1.62,54.67-2.52,79.91,0,15.83,1.58,29.9,15.38,31.7,31.18ZM311.24,130.76c-1.29-6.04-5.32-9.6-11.42-10.29-22.51-2.53-49.61,1.9-72.61,0-7.12.96-10.99,5.17-11.63,12.32v131.05c.67,7.5,4.83,11.68,12.35,12.35,22.95-1.6,48.54,2.02,71.17,0,7.5-.67,11.68-4.83,12.35-12.35l-.21-133.09Z"/><path fill="#ffffff" d="M359.15,333.62c1.24,7.62-3.68,13.99-11.39,14.45H11.6c-15.27-1.21-15.67-22.63,0-24.01l339.35.54c3.88,1.01,7.55,5.07,8.19,9.02Z"/></svg>