<?xml version="1.0" encoding="UTF-8"?><svg id="Layer_1" xmlns="http://www.w3.org/2000/svg" viewBox="0 0 264.71 359.42"><path fill="#ffffff" d="M144.33,59.95h52.77c11.51,0,25.67,13.51,29.18,23.97,3.12,9.32,2.75,39.79,1.92,50.54-1.14,14.6-15.6,33.28-31.09,33.28h-52.77v23.95h88.7c11.51,0,25.67,13.51,29.18,23.97,3.12,9.32,2.75,39.79,1.92,50.54-1.14,14.6-15.6,33.28-31.09,33.28h-88.7v50.53c0,4.56-7.17,9.31-11.6,9.42-4.72.11-12.35-4.49-12.35-9.42v-50.53H31.68c-11.43,0-25.68-13.53-29.18-23.97-3.12-9.32-2.75-39.79-1.92-50.54,1.13-14.57,15.64-33.28,31.09-33.28h88.7v-23.95h-52.77c-11.43,0-25.68-13.53-29.18-23.97-3.12-9.32-2.75-39.79-1.92-50.54,1.13-14.57,15.64-33.28,31.09-33.28h52.77V9.42C120.38,4.5,128-.11,132.73,0c4.43.11,11.6,4.85,11.6,9.42v50.53ZM70.78,84.08c-4.79,1.21-8.18,3.46-9.57,8.39-1.49,5.25-1.49,34.23-.65,40.39.9,6.57,5.79,10.54,12.26,10.95l119.8-.03c7.16-.97,10.99-5.21,11.63-12.32.74-8.26.99-28.71-.1-36.64-.9-6.57-5.79-10.54-12.26-10.95l-121.12.21ZM34.85,215.82c-5.31,1.14-9.19,4.63-10.11,10.11-.97,5.81-.95,35.13.34,40.48s4.84,7.76,9.77,8.94l193.7.18c5.84-.71,10.41-4.27,11.42-10.29s1.04-33.09,0-39.32c-.92-5.49-4.8-8.97-10.11-10.11H34.85Z"/></svg>