<?xml version="1.0" encoding="UTF-8"?><svg id="Layer_1" xmlns="http://www.w3.org/2000/svg" viewBox="0 0 348.06 359.34"><path fill="#ffffff" d="M31.98,191.84l234.86-.23c17.09,1.25,31.12,14.99,33.19,31.93-1.33,25.49,2.08,53.31.12,78.53-1.35,17.31-15.33,31.58-32.6,33.27l-233.56.04c-17.13-1.33-31.1-14.93-33.19-31.93,1.49-25.56-2.32-54.02-.08-79.24,1.45-16.36,15.05-30.31,31.26-32.37ZM34.95,215.77c-6.49,1.43-9.73,5.6-10.31,12.14-2.06,23.04,1.55,49.2.1,72.57,1.01,5.26,3.73,9.03,9.06,10.41,77.8.72,156.07,1.12,233.82-.2,5.59-1.58,8.1-6.06,8.6-11.61,2.07-23.04-1.55-49.2-.1-72.57-1.01-5.26-3.73-9.03-9.06-10.41l-232.1-.34Z"/><path fill="#ffffff" d="M127.8,24.17l139.05-.23c17.58,1.31,31.94,15.77,33.31,33.31,1.95,25.03-1.5,52.56-.04,77.86-1.89,17.33-15.77,31.23-33.27,32.6-44.06,3.44-92.52-2.65-137.04,0-17.15-1.34-31.1-14.96-33.19-31.93,1.62-25.64-2.52-54.67,0-79.91,1.58-15.83,15.38-29.9,31.18-31.7ZM130.76,48.09c-6.04,1.29-9.6,5.32-10.29,11.42-2.53,22.51,1.9,49.61,0,72.61.96,7.12,5.17,10.99,12.32,11.63h131.05c7.5-.67,11.68-4.83,12.35-12.35-1.6-22.95,2.02-48.54,0-71.17-.67-7.5-4.83-11.68-12.35-12.35l-133.09.21Z"/><path fill="#ffffff" d="M333.62.19c7.62-1.24,13.99,3.68,14.45,11.39v336.15c-1.21,15.27-22.63,15.67-24.01,0l.54-339.35c1.01-3.88,5.07-7.55,9.02-8.19Z"/></svg>